<?xml version="1.0" encoding="UTF-8"?>
<!DOCTYPE svg PUBLIC "-//W3C//DTD SVG 1.1//EN" "http://www.w3.org/Graphics/SVG/1.1/DTD/svg11.dtd">
<svg version="1.2" xmlns="http://www.w3.org/2000/svg" xmlns:xlink="http://www.w3.org/1999/xlink" x="0" y="0" width="1327" height="574" viewBox="0 0 1327 574">
<style type="text/css"><![CDATA[
text { font:12px Dialog; }
]]></style>
<rect x="-1710" y="-1269" width="4594" height="3088" style="fill:rgb(255,255,255);stroke:none" />
<clipPath id="clip1"><path d="M15,15 L1312,15 L1312,559 L15,559 Z M650,264 C645.5820313,264 642,267.5820313 642,272 L642,326 C642,330.4179688 645.5820313,334 650,334 L829,334 C833.4179688,334 837,330.4179688 837,326 L837,272 C837,267.5820313 833.4179688,264 829,264 Z M650,264 Z M650,264" /></clipPath>
<path d="M762.390625,264 C779.859375,183.8632813 806.0625,143.7929688 841,143.7929688" style="fill:none;stroke:rgb(85,142,213)" clip-path="url(#clip1)" />
<clipPath id="clip2"><path d="M15,15 L1312,15 L1312,559 L15,559 Z M650,264 C645.5820313,264 642,267.5820313 642,272 L642,326 C642,330.4179688 645.5820313,334 650,334 L829,334 C833.4179688,334 837,330.4179688 837,326 L837,272 C837,267.5820313 833.4179688,264 829,264 Z M650,264 Z M650,264" /></clipPath>
<path d="M837,322.5195313 C851.2226563,332.8085938 872.5546875,337.953125 901,337.953125" style="fill:none;stroke:rgb(85,142,213)" clip-path="url(#clip2)" />
<clipPath id="clip3"><path d="M15,15 L1312,15 L1312,559 L15,559 Z M650,264 C645.5820313,264 642,267.5820313 642,272 L642,326 C642,330.4179688 645.5820313,334 650,334 L829,334 C833.4179688,334 837,330.4179688 837,326 L837,272 C837,267.5820313 833.4179688,264 829,264 Z M650,264 Z M650,264" /></clipPath>
<path d="M757.2695313,334 C775.875,443.953125 803.7851563,498.9296875 841,498.9296875" style="fill:none;stroke:rgb(85,142,213)" clip-path="url(#clip3)" />
<clipPath id="clip4"><path d="M15,15 L1312,15 L1312,559 L15,559 Z M650,264 C645.5820313,264 642,267.5820313 642,272 L642,326 C642,330.4179688 645.5820313,334 650,334 L829,334 C833.4179688,334 837,330.4179688 837,326 L837,272 C837,267.5820313 833.4179688,264 829,264 Z M650,264 Z M650,264" /></clipPath>
<path d="M717.7109375,334 C695.9960938,438.6289063 663.4257813,490.9453125 620,490.9453125" style="fill:none;stroke:rgb(85,142,213)" clip-path="url(#clip4)" />
<clipPath id="clip5"><path d="M15,15 L1312,15 L1312,559 L15,559 Z M650,264 C645.5820313,264 642,267.5820313 642,272 L642,326 C642,330.4179688 645.5820313,334 650,334 L829,334 C833.4179688,334 837,330.4179688 837,326 L837,272 C837,267.5820313 833.4179688,264 829,264 Z M650,264 Z M650,264" /></clipPath>
<path d="M642,297.1835938 C627.7773438,296.3867188 606.4453125,295.9882813 578,295.9882813" style="fill:none;stroke:rgb(85,142,213)" clip-path="url(#clip5)" />
<clipPath id="clip6"><path d="M15,15 L1312,15 L1312,559 L15,559 Z M650,264 C645.5820313,264 642,267.5820313 642,272 L642,326 C642,330.4179688 645.5820313,334 650,334 L829,334 C833.4179688,334 837,330.4179688 837,326 L837,272 C837,267.5820313 833.4179688,264 829,264 Z M650,264 Z M650,264" /></clipPath>
<path d="M711.0507813,264 C690.8164063,189.3164063 660.46875,151.9765625 620,151.9765625" style="fill:none;stroke:rgb(85,142,213)" clip-path="url(#clip6)" />
<clipPath id="clip7"><path d="M638,260 L842,260 L842,339 L638,339 L638,260 Z" /></clipPath>
<path d="M650,264 C645.5820313,264 642,267.5820313 642,272 L642,326 C642,330.4179688 645.5820313,334 650,334 L829,334 C833.4179688,334 837,330.4179688 837,326 L837,272 C837,267.5820313 833.4179688,264 829,264 Z M650,264" style="fill:rgb(220,230,242);stroke:none" clip-path="url(#clip7)" />
<clipPath id="clip8"><path d="M638,260 L842,260 L842,339 L638,339 L638,260 Z" /></clipPath>
<path d="M650,264 C645.5820313,264 642,267.5820313 642,272 L642,326 C642,330.4179688 645.5820313,334 650,334 L829,334 C833.4179688,334 837,330.4179688 837,326 L837,272 C837,267.5820313 833.4179688,264 829,264 Z M650,264" style="fill:none;stroke:rgb(85,142,213);stroke-width:5" clip-path="url(#clip8)" />
<text x="677" y="303" style="font:18px Open Sans">Curiosities</text>
<clipPath id="clip9"><path d="M840,15 L1312,15 L1312,212 L840,212 Z M846,122 C843.2382813,122 841,124.2382813 841,127 L841,160 C841,162.7617188 843.2382813,165 846,165 L953,165 C955.7617188,165 958,162.7617188 958,160 L958,127 C958,124.2382813 955.7617188,122 953,122 Z M846,122 Z M846,122" /></clipPath>
<path d="M971,143.8554688 C973.2226563,99.953125 976.5546875,78 981,78" style="fill:none;stroke:rgb(85,142,213)" clip-path="url(#clip9)" />
<clipPath id="clip10"><path d="M840,15 L1312,15 L1312,212 L840,212 Z M846,122 C843.2382813,122 841,124.2382813 841,127 L841,160 C841,162.7617188 843.2382813,165 846,165 L953,165 C955.7617188,165 958,162.7617188 958,160 L958,127 C958,124.2382813 955.7617188,122 953,122 Z M846,122 Z M846,122" /></clipPath>
<path d="M971,143.8554688 C973.2226563,154.6171875 976.5546875,160 981,160" style="fill:none;stroke:rgb(85,142,213)" clip-path="url(#clip10)" />
<clipPath id="clip11"><path d="M840,15 L1312,15 L1312,212 L840,212 Z M846,122 C843.2382813,122 841,124.2382813 841,127 L841,160 C841,162.7617188 843.2382813,165 846,165 L953,165 C955.7617188,165 958,162.7617188 958,160 L958,127 C958,124.2382813 955.7617188,122 953,122 Z M846,122 Z M846,122" /></clipPath>
<path d="M971,143.8554688 C973.2226563,187.953125 976.5546875,210 981,210" style="fill:none;stroke:rgb(85,142,213)" clip-path="url(#clip11)" />
<clipPath id="clip12"><path d="M839,14 L1313,14 L1313,213 L839,213 L839,14 Z" /></clipPath>
<path d="M958,143.7929688 L971,143.8554688" style="fill:none;stroke:rgb(85,142,213)" clip-path="url(#clip12)" />
<clipPath id="clip13"><path d="M839,120 L961,120 L961,168 L839,168 L839,120 Z" /></clipPath>
<path d="M846,122 C843.2382813,122 841,124.2382813 841,127 L841,160 C841,162.7617188 843.2382813,165 846,165 L953,165 C955.7617188,165 958,162.7617188 958,160 L958,127 C958,124.2382813 955.7617188,122 953,122 Z M846,122" style="fill:rgb(220,230,242);stroke:none" clip-path="url(#clip13)" />
<clipPath id="clip14"><path d="M839,120 L961,120 L961,168 L839,168 L839,120 Z" /></clipPath>
<path d="M846,122 C843.2382813,122 841,124.2382813 841,127 L841,160 C841,162.7617188 843.2382813,165 846,165 L953,165 C955.7617188,165 958,162.7617188 958,160 L958,127 C958,124.2382813 955.7617188,122 953,122 Z M846,122" style="fill:none;stroke:rgb(85,142,213);stroke-width:2" clip-path="url(#clip14)" />
<text x="855" y="146" style="font:13px Open Sans">Limitations</text>
<clipPath id="clip15"><path d="M959,138 L972,138 L972,151 L959,151 L959,138 Z" /></clipPath>
<path d="M969.5,144 C969.5,141.515625 967.484375,139.5 965,139.5 C962.515625,139.5 960.5,141.515625 960.5,144 C960.5,146.484375 962.515625,148.5 965,148.5 C967.484375,148.5 969.5,146.484375 969.5,144 Z M969.5,144" style="fill:rgb(250,250,250);stroke:none" clip-path="url(#clip15)" />
<clipPath id="clip16"><path d="M959,138 L972,138 L972,151 L959,151 L959,138 Z" /></clipPath>
<path d="M969.5,144 C969.5,141.515625 967.484375,139.5 965,139.5 C962.515625,139.5 960.5,141.515625 960.5,144 C960.5,146.484375 962.515625,148.5 965,148.5 C967.484375,148.5 969.5,146.484375 969.5,144 Z M969.5,144" style="fill:none;stroke:rgb(85,142,213)" clip-path="url(#clip16)" />
<clipPath id="clip17"><path d="M959,138 L972,138 L972,151 L959,151 L959,138 Z" /></clipPath>
<path d="M963,144 L967,144" style="fill:none;stroke:rgb(150,160,200)" clip-path="url(#clip17)" />
<clipPath id="clip18"><path d="M979,15 L1176,15 L1176,113 L979,113 Z M981,50 L981,77 L1042,77 L1042,50 Z M981,50 Z M981,50" /></clipPath>
<path d="M1055,78 C1057.4453125,56 1061.109375,45 1066,45" style="fill:none;stroke:rgb(85,142,213)" clip-path="url(#clip18)" />
<clipPath id="clip19"><path d="M979,15 L1176,15 L1176,113 L979,113 Z M981,50 L981,77 L1042,77 L1042,50 Z M981,50 Z M981,50" /></clipPath>
<path d="M1055,78 C1057.4453125,78 1061.109375,78 1066,78" style="fill:none;stroke:rgb(85,142,213)" clip-path="url(#clip19)" />
<clipPath id="clip20"><path d="M979,15 L1176,15 L1176,113 L979,113 Z M981,50 L981,77 L1042,77 L1042,50 Z M981,50 Z M981,50" /></clipPath>
<path d="M1055,78 C1057.4453125,100 1061.109375,111 1066,111" style="fill:none;stroke:rgb(85,142,213)" clip-path="url(#clip20)" />
<clipPath id="clip21"><path d="M978,14 L1177,14 L1177,114 L978,114 L978,14 Z" /></clipPath>
<path d="M1042,78 L1055,78" style="fill:none;stroke:rgb(85,142,213)" clip-path="url(#clip21)" />
<clipPath id="clip22"><path d="M978,47 L1046,47 L1046,81 L978,81 L978,47 Z" /></clipPath>
<path d="M981,78 L1042,78 Z M981,78" style="fill:none;stroke:rgb(85,142,213);stroke-width:3" clip-path="url(#clip22)" />
<text x="992" y="66" style="font:10px Open Sans">Maths</text>
<clipPath id="clip23"><path d="M1044,58 L1057,58 L1057,71 L1044,71 L1044,58 Z" /></clipPath>
<path d="M1054.5,64 C1054.5,61.515625 1052.484375,59.5 1050,59.5 C1047.515625,59.5 1045.5,61.515625 1045.5,64 C1045.5,66.484375 1047.515625,68.5 1050,68.5 C1052.484375,68.5 1054.5,66.484375 1054.5,64 Z M1054.5,64" style="fill:rgb(250,250,250);stroke:none" clip-path="url(#clip23)" />
<clipPath id="clip24"><path d="M1044,58 L1057,58 L1057,71 L1044,71 L1044,58 Z" /></clipPath>
<path d="M1054.5,64 C1054.5,61.515625 1052.484375,59.5 1050,59.5 C1047.515625,59.5 1045.5,61.515625 1045.5,64 C1045.5,66.484375 1047.515625,68.5 1050,68.5 C1052.484375,68.5 1054.5,66.484375 1054.5,64 Z M1054.5,64" style="fill:none;stroke:rgb(85,142,213)" clip-path="url(#clip24)" />
<clipPath id="clip25"><path d="M1044,58 L1057,58 L1057,71 L1044,71 L1044,58 Z" /></clipPath>
<path d="M1048,64 L1052,64" style="fill:none;stroke:rgb(150,160,200)" clip-path="url(#clip25)" />
<clipPath id="clip26"><path d="M1063,14 L1177,14 L1177,48 L1063,48 L1063,14 Z" /></clipPath>
<path d="M1066,45 L1173,45 Z M1066,45" style="fill:none;stroke:rgb(85,142,213);stroke-width:3" clip-path="url(#clip26)" />
<text x="1077" y="33" style="font:10px Open Sans">Linear algebra</text>
<clipPath id="clip27"><path d="M1063,47 L1142,47 L1142,81 L1063,81 L1063,47 Z" /></clipPath>
<path d="M1066,78 L1138,78 Z M1066,78" style="fill:none;stroke:rgb(85,142,213);stroke-width:3" clip-path="url(#clip27)" />
<text x="1077" y="66" style="font:10px Open Sans">Calculus</text>
<clipPath id="clip28"><path d="M1063,80 L1151,80 L1151,114 L1063,114 L1063,80 Z" /></clipPath>
<path d="M1066,111 L1147,111 Z M1066,111" style="fill:none;stroke:rgb(85,142,213);stroke-width:3" clip-path="url(#clip28)" />
<text x="1077" y="99" style="font:10px Open Sans">Probstats</text>
<clipPath id="clip29"><path d="M979,114 L1312,114 L1312,179 L979,179 Z M981,132 L981,159 L1103,159 L1103,132 Z M981,132 Z M981,132" /></clipPath>
<path d="M1116,160 C1118.4453125,149.3320313 1122.109375,144 1127,144" style="fill:none;stroke:rgb(85,142,213)" clip-path="url(#clip29)" />
<clipPath id="clip30"><path d="M979,114 L1312,114 L1312,179 L979,179 Z M981,132 L981,159 L1103,159 L1103,132 Z M981,132 Z M981,132" /></clipPath>
<path d="M1116,160 C1118.4453125,171.3320313 1122.109375,177 1127,177" style="fill:none;stroke:rgb(85,142,213)" clip-path="url(#clip30)" />
<clipPath id="clip31"><path d="M978,113 L1313,113 L1313,180 L978,180 L978,113 Z" /></clipPath>
<path d="M1103,160 L1116,160" style="fill:none;stroke:rgb(85,142,213)" clip-path="url(#clip31)" />
<clipPath id="clip32"><path d="M978,129 L1107,129 L1107,163 L978,163 L978,129 Z" /></clipPath>
<path d="M981,160 L1103,160 Z M981,160" style="fill:none;stroke:rgb(85,142,213);stroke-width:3" clip-path="url(#clip32)" />
<text x="992" y="148" style="font:10px Open Sans">Neural networks</text>
<clipPath id="clip33"><path d="M1105,140 L1118,140 L1118,153 L1105,153 L1105,140 Z" /></clipPath>
<path d="M1115.5,146 C1115.5,143.515625 1113.484375,141.5 1111,141.5 C1108.515625,141.5 1106.5,143.515625 1106.5,146 C1106.5,148.484375 1108.515625,150.5 1111,150.5 C1113.484375,150.5 1115.5,148.484375 1115.5,146 Z M1115.5,146" style="fill:rgb(250,250,250);stroke:none" clip-path="url(#clip33)" />
<clipPath id="clip34"><path d="M1105,140 L1118,140 L1118,153 L1105,153 L1105,140 Z" /></clipPath>
<path d="M1115.5,146 C1115.5,143.515625 1113.484375,141.5 1111,141.5 C1108.515625,141.5 1106.5,143.515625 1106.5,146 C1106.5,148.484375 1108.515625,150.5 1111,150.5 C1113.484375,150.5 1115.5,148.484375 1115.5,146 Z M1115.5,146" style="fill:none;stroke:rgb(85,142,213)" clip-path="url(#clip34)" />
<clipPath id="clip35"><path d="M1105,140 L1118,140 L1118,153 L1105,153 L1105,140 Z" /></clipPath>
<path d="M1109,146 L1113,146" style="fill:none;stroke:rgb(150,160,200)" clip-path="url(#clip35)" />
<clipPath id="clip36"><path d="M1124,113 L1261,113 L1261,147 L1124,147 L1124,113 Z" /></clipPath>
<path d="M1127,144 L1257,144 Z M1127,144" style="fill:none;stroke:rgb(85,142,213);stroke-width:3" clip-path="url(#clip36)" />
<text x="1138" y="132" style="font:10px Open Sans">General principles</text>
<clipPath id="clip37"><path d="M1125,147 L1312,147 L1312,179 L1125,179 Z M1127,149 L1127,176 L1195,176 L1195,149 Z M1127,149 Z M1127,149" /></clipPath>
<path d="M1208,177 C1210.4453125,177 1214.109375,177 1219,177" style="fill:none;stroke:rgb(85,142,213)" clip-path="url(#clip37)" />
<clipPath id="clip38"><path d="M1124,146 L1313,146 L1313,180 L1124,180 L1124,146 Z" /></clipPath>
<path d="M1195,177 L1208,177" style="fill:none;stroke:rgb(85,142,213)" clip-path="url(#clip38)" />
<clipPath id="clip39"><path d="M1124,146 L1199,146 L1199,180 L1124,180 L1124,146 Z" /></clipPath>
<path d="M1127,177 L1195,177 Z M1127,177" style="fill:none;stroke:rgb(85,142,213);stroke-width:3" clip-path="url(#clip39)" />
<text x="1138" y="165" style="font:10px Open Sans">Applied</text>
<clipPath id="clip40"><path d="M1197,157 L1210,157 L1210,170 L1197,170 L1197,157 Z" /></clipPath>
<path d="M1207.5,163 C1207.5,160.515625 1205.484375,158.5 1203,158.5 C1200.515625,158.5 1198.5,160.515625 1198.5,163 C1198.5,165.484375 1200.515625,167.5 1203,167.5 C1205.484375,167.5 1207.5,165.484375 1207.5,163 Z M1207.5,163" style="fill:rgb(250,250,250);stroke:none" clip-path="url(#clip40)" />
<clipPath id="clip41"><path d="M1197,157 L1210,157 L1210,170 L1197,170 L1197,157 Z" /></clipPath>
<path d="M1207.5,163 C1207.5,160.515625 1205.484375,158.5 1203,158.5 C1200.515625,158.5 1198.5,160.515625 1198.5,163 C1198.5,165.484375 1200.515625,167.5 1203,167.5 C1205.484375,167.5 1207.5,165.484375 1207.5,163 Z M1207.5,163" style="fill:none;stroke:rgb(85,142,213)" clip-path="url(#clip41)" />
<clipPath id="clip42"><path d="M1197,157 L1210,157 L1210,170 L1197,170 L1197,157 Z" /></clipPath>
<path d="M1201,163 L1205,163" style="fill:none;stroke:rgb(150,160,200)" clip-path="url(#clip42)" />
<clipPath id="clip43"><path d="M1216,146 L1313,146 L1313,180 L1216,180 L1216,146 Z" /></clipPath>
<path d="M1219,177 L1309,177 Z M1219,177" style="fill:none;stroke:rgb(85,142,213);stroke-width:3" clip-path="url(#clip43)" />
<text x="1230" y="165" style="font:10px Open Sans">Tensorflow</text>
<clipPath id="clip44"><path d="M979,180 L1296,180 L1296,212 L979,212 Z M981,182 L981,209 L1106,209 L1106,182 Z M981,182 Z M981,182" /></clipPath>
<path d="M1119,210 C1121.4453125,210 1125.109375,210 1130,210" style="fill:none;stroke:rgb(85,142,213)" clip-path="url(#clip44)" />
<clipPath id="clip45"><path d="M978,179 L1297,179 L1297,213 L978,213 L978,179 Z" /></clipPath>
<path d="M1106,210 L1119,210" style="fill:none;stroke:rgb(85,142,213)" clip-path="url(#clip45)" />
<clipPath id="clip46"><path d="M978,179 L1110,179 L1110,213 L978,213 L978,179 Z" /></clipPath>
<path d="M981,210 L1106,210 Z M981,210" style="fill:none;stroke:rgb(85,142,213);stroke-width:3" clip-path="url(#clip46)" />
<text x="992" y="198" style="font:10px Open Sans">Machine learning</text>
<clipPath id="clip47"><path d="M1108,190 L1121,190 L1121,203 L1108,203 L1108,190 Z" /></clipPath>
<path d="M1118.5,196 C1118.5,193.515625 1116.484375,191.5 1114,191.5 C1111.515625,191.5 1109.5,193.515625 1109.5,196 C1109.5,198.484375 1111.515625,200.5 1114,200.5 C1116.484375,200.5 1118.5,198.484375 1118.5,196 Z M1118.5,196" style="fill:rgb(250,250,250);stroke:none" clip-path="url(#clip47)" />
<clipPath id="clip48"><path d="M1108,190 L1121,190 L1121,203 L1108,203 L1108,190 Z" /></clipPath>
<path d="M1118.5,196 C1118.5,193.515625 1116.484375,191.5 1114,191.5 C1111.515625,191.5 1109.5,193.515625 1109.5,196 C1109.5,198.484375 1111.515625,200.5 1114,200.5 C1116.484375,200.5 1118.5,198.484375 1118.5,196 Z M1118.5,196" style="fill:none;stroke:rgb(85,142,213)" clip-path="url(#clip48)" />
<clipPath id="clip49"><path d="M1108,190 L1121,190 L1121,203 L1108,203 L1108,190 Z" /></clipPath>
<path d="M1112,196 L1116,196" style="fill:none;stroke:rgb(150,160,200)" clip-path="url(#clip49)" />
<clipPath id="clip50"><path d="M1127,179 L1297,179 L1297,213 L1127,213 L1127,179 Z" /></clipPath>
<path d="M1130,210 L1293,210 Z M1130,210" style="fill:none;stroke:rgb(85,142,213);stroke-width:3" clip-path="url(#clip50)" />
<text x="1141" y="198" style="font:10px Open Sans">Reinforcement learning</text>
<clipPath id="clip51"><path d="M900,242 L1276,242 L1276,406 L900,406 Z M906,316 C903.2382813,316 901,318.2382813 901,321 L901,354 C901,356.7617188 903.2382813,359 906,359 L1078,359 C1080.7617188,359 1083,356.7617188 1083,354 L1083,321 C1083,318.2382813 1080.7617188,316 1078,316 Z M906,316 Z M906,316" /></clipPath>
<path d="M1096,338.0195313 C1098.2226563,294.0078125 1101.5546875,272 1106,272" style="fill:none;stroke:rgb(85,142,213)" clip-path="url(#clip51)" />
<clipPath id="clip52"><path d="M900,242 L1276,242 L1276,406 L900,406 Z M906,316 C903.2382813,316 901,318.2382813 901,321 L901,354 C901,356.7617188 903.2382813,359 906,359 L1078,359 C1080.7617188,359 1083,356.7617188 1083,354 L1083,321 C1083,318.2382813 1080.7617188,316 1078,316 Z M906,316 Z M906,316" /></clipPath>
<path d="M1096,338.0195313 C1098.2226563,316.0078125 1101.5546875,305 1106,305" style="fill:none;stroke:rgb(85,142,213)" clip-path="url(#clip52)" />
<clipPath id="clip53"><path d="M900,242 L1276,242 L1276,406 L900,406 Z M906,316 C903.2382813,316 901,318.2382813 901,321 L901,354 C901,356.7617188 903.2382813,359 906,359 L1078,359 C1080.7617188,359 1083,356.7617188 1083,354 L1083,321 C1083,318.2382813 1080.7617188,316 1078,316 Z M906,316 Z M906,316" /></clipPath>
<path d="M1096,338.0195313 C1098.2226563,338.0078125 1101.5546875,338 1106,338" style="fill:none;stroke:rgb(85,142,213)" clip-path="url(#clip53)" />
<clipPath id="clip54"><path d="M900,242 L1276,242 L1276,406 L900,406 Z M906,316 C903.2382813,316 901,318.2382813 901,321 L901,354 C901,356.7617188 903.2382813,359 906,359 L1078,359 C1080.7617188,359 1083,356.7617188 1083,354 L1083,321 C1083,318.2382813 1080.7617188,316 1078,316 Z M906,316 Z M906,316" /></clipPath>
<path d="M1096,338.0195313 C1098.2226563,360.0078125 1101.5546875,371 1106,371" style="fill:none;stroke:rgb(85,142,213)" clip-path="url(#clip54)" />
<clipPath id="clip55"><path d="M900,242 L1276,242 L1276,406 L900,406 Z M906,316 C903.2382813,316 901,318.2382813 901,321 L901,354 C901,356.7617188 903.2382813,359 906,359 L1078,359 C1080.7617188,359 1083,356.7617188 1083,354 L1083,321 C1083,318.2382813 1080.7617188,316 1078,316 Z M906,316 Z M906,316" /></clipPath>
<path d="M1096,338.0195313 C1098.2226563,382.0078125 1101.5546875,404 1106,404" style="fill:none;stroke:rgb(85,142,213)" clip-path="url(#clip55)" />
<clipPath id="clip56"><path d="M899,241 L1277,241 L1277,407 L899,407 L899,241 Z" /></clipPath>
<path d="M1083,337.953125 L1096,338.0195313" style="fill:none;stroke:rgb(85,142,213)" clip-path="url(#clip56)" />
<clipPath id="clip57"><path d="M899,314 L1086,314 L1086,362 L899,362 L899,314 Z" /></clipPath>
<path d="M906,316 C903.2382813,316 901,318.2382813 901,321 L901,354 C901,356.7617188 903.2382813,359 906,359 L1078,359 C1080.7617188,359 1083,356.7617188 1083,354 L1083,321 C1083,318.2382813 1080.7617188,316 1078,316 Z M906,316" style="fill:rgb(220,230,242);stroke:none" clip-path="url(#clip57)" />
<clipPath id="clip58"><path d="M899,314 L1086,314 L1086,362 L899,362 L899,314 Z" /></clipPath>
<path d="M906,316 C903.2382813,316 901,318.2382813 901,321 L901,354 C901,356.7617188 903.2382813,359 906,359 L1078,359 C1080.7617188,359 1083,356.7617188 1083,354 L1083,321 C1083,318.2382813 1080.7617188,316 1078,316 Z M906,316" style="fill:none;stroke:rgb(85,142,213);stroke-width:2" clip-path="url(#clip58)" />
<text x="915" y="339" style="font:13px Open Sans">Natural computing</text>
<clipPath id="clip59"><path d="M1084,332 L1097,332 L1097,345 L1084,345 L1084,332 Z" /></clipPath>
<path d="M1094.5,338 C1094.5,335.515625 1092.484375,333.5 1090,333.5 C1087.515625,333.5 1085.5,335.515625 1085.5,338 C1085.5,340.484375 1087.515625,342.5 1090,342.5 C1092.484375,342.5 1094.5,340.484375 1094.5,338 Z M1094.5,338" style="fill:rgb(250,250,250);stroke:none" clip-path="url(#clip59)" />
<clipPath id="clip60"><path d="M1084,332 L1097,332 L1097,345 L1084,345 L1084,332 Z" /></clipPath>
<path d="M1094.5,338 C1094.5,335.515625 1092.484375,333.5 1090,333.5 C1087.515625,333.5 1085.5,335.515625 1085.5,338 C1085.5,340.484375 1087.515625,342.5 1090,342.5 C1092.484375,342.5 1094.5,340.484375 1094.5,338 Z M1094.5,338" style="fill:none;stroke:rgb(85,142,213)" clip-path="url(#clip60)" />
<clipPath id="clip61"><path d="M1084,332 L1097,332 L1097,345 L1084,345 L1084,332 Z" /></clipPath>
<path d="M1088,338 L1092,338" style="fill:none;stroke:rgb(150,160,200)" clip-path="url(#clip61)" />
<clipPath id="clip62"><path d="M1103,241 L1217,241 L1217,275 L1103,275 L1103,241 Z" /></clipPath>
<path d="M1106,272 L1213,272 Z M1106,272" style="fill:none;stroke:rgb(85,142,213);stroke-width:3" clip-path="url(#clip62)" />
<text x="1117" y="260" style="font:10px Open Sans">Linear algebra</text>
<clipPath id="clip63"><path d="M1103,274 L1191,274 L1191,308 L1103,308 L1103,274 Z" /></clipPath>
<path d="M1106,305 L1187,305 Z M1106,305" style="fill:none;stroke:rgb(85,142,213);stroke-width:3" clip-path="url(#clip63)" />
<text x="1117" y="293" style="font:10px Open Sans">Probstats</text>
<clipPath id="clip64"><path d="M1103,307 L1277,307 L1277,341 L1103,341 L1103,307 Z" /></clipPath>
<path d="M1106,338 L1273,338 Z M1106,338" style="fill:none;stroke:rgb(85,142,213);stroke-width:3" clip-path="url(#clip64)" />
<text x="1117" y="325" style="font:10px Open Sans">Evolutionary computing</text>
<clipPath id="clip65"><path d="M1103,340 L1220,340 L1220,374 L1103,374 L1103,340 Z" /></clipPath>
<path d="M1106,371 L1216,371 Z M1106,371" style="fill:none;stroke:rgb(85,142,213);stroke-width:3" clip-path="url(#clip65)" />
<text x="1117" y="358" style="font:10px Open Sans">Agent systems</text>
<clipPath id="clip66"><path d="M1103,373 L1180,373 L1180,407 L1103,407 L1103,373 Z" /></clipPath>
<path d="M1106,404 L1176,404 Z M1106,404" style="fill:none;stroke:rgb(85,142,213);stroke-width:3" clip-path="url(#clip66)" />
<text x="1117" y="391" style="font:10px Open Sans">Swarms</text>
<clipPath id="clip67"><path d="M840,436 L1201,436 L1201,534 L840,534 Z M846,477 C843.2382813,477 841,479.2382813 841,482 L841,515 C841,517.7617188 843.2382813,520 846,520 L1007,520 C1009.7617188,520 1012,517.7617188 1012,515 L1012,482 C1012,479.2382813 1009.7617188,477 1007,477 Z M846,477 Z M846,477" /></clipPath>
<path d="M1025,498.9882813 C1027.2226563,476.9960938 1030.5546875,466 1035,466" style="fill:none;stroke:rgb(85,142,213)" clip-path="url(#clip67)" />
<clipPath id="clip68"><path d="M840,436 L1201,436 L1201,534 L840,534 Z M846,477 C843.2382813,477 841,479.2382813 841,482 L841,515 C841,517.7617188 843.2382813,520 846,520 L1007,520 C1009.7617188,520 1012,517.7617188 1012,515 L1012,482 C1012,479.2382813 1009.7617188,477 1007,477 Z M846,477 Z M846,477" /></clipPath>
<path d="M1025,498.9882813 C1027.2226563,498.9960938 1030.5546875,499 1035,499" style="fill:none;stroke:rgb(85,142,213)" clip-path="url(#clip68)" />
<clipPath id="clip69"><path d="M840,436 L1201,436 L1201,534 L840,534 Z M846,477 C843.2382813,477 841,479.2382813 841,482 L841,515 C841,517.7617188 843.2382813,520 846,520 L1007,520 C1009.7617188,520 1012,517.7617188 1012,515 L1012,482 C1012,479.2382813 1009.7617188,477 1007,477 Z M846,477 Z M846,477" /></clipPath>
<path d="M1025,498.9882813 C1027.2226563,520.9960938 1030.5546875,532 1035,532" style="fill:none;stroke:rgb(85,142,213)" clip-path="url(#clip69)" />
<clipPath id="clip70"><path d="M839,435 L1202,435 L1202,535 L839,535 L839,435 Z" /></clipPath>
<path d="M1012,498.9257813 L1025,498.9882813" style="fill:none;stroke:rgb(85,142,213)" clip-path="url(#clip70)" />
<clipPath id="clip71"><path d="M839,475 L1015,475 L1015,523 L839,523 L839,475 Z" /></clipPath>
<path d="M846,477 C843.2382813,477 841,479.2382813 841,482 L841,515 C841,517.7617188 843.2382813,520 846,520 L1007,520 C1009.7617188,520 1012,517.7617188 1012,515 L1012,482 C1012,479.2382813 1009.7617188,477 1007,477 Z M846,477" style="fill:rgb(220,230,242);stroke:none" clip-path="url(#clip71)" />
<clipPath id="clip72"><path d="M839,475 L1015,475 L1015,523 L839,523 L839,475 Z" /></clipPath>
<path d="M846,477 C843.2382813,477 841,479.2382813 841,482 L841,515 C841,517.7617188 843.2382813,520 846,520 L1007,520 C1009.7617188,520 1012,517.7617188 1012,515 L1012,482 C1012,479.2382813 1009.7617188,477 1007,477 Z M846,477" style="fill:none;stroke:rgb(85,142,213);stroke-width:2" clip-path="url(#clip72)" />
<text x="855" y="500" style="font:13px Open Sans">Machine learning</text>
<clipPath id="clip73"><path d="M1013,493 L1026,493 L1026,506 L1013,506 L1013,493 Z" /></clipPath>
<path d="M1023.5,499 C1023.5,496.515625 1021.484375,494.5 1019,494.5 C1016.515625,494.5 1014.5,496.515625 1014.5,499 C1014.5,501.484375 1016.515625,503.5 1019,503.5 C1021.484375,503.5 1023.5,501.484375 1023.5,499 Z M1023.5,499" style="fill:rgb(250,250,250);stroke:none" clip-path="url(#clip73)" />
<clipPath id="clip74"><path d="M1013,493 L1026,493 L1026,506 L1013,506 L1013,493 Z" /></clipPath>
<path d="M1023.5,499 C1023.5,496.515625 1021.484375,494.5 1019,494.5 C1016.515625,494.5 1014.5,496.515625 1014.5,499 C1014.5,501.484375 1016.515625,503.5 1019,503.5 C1021.484375,503.5 1023.5,501.484375 1023.5,499 Z M1023.5,499" style="fill:none;stroke:rgb(85,142,213)" clip-path="url(#clip74)" />
<clipPath id="clip75"><path d="M1013,493 L1026,493 L1026,506 L1013,506 L1013,493 Z" /></clipPath>
<path d="M1017,499 L1021,499" style="fill:none;stroke:rgb(150,160,200)" clip-path="url(#clip75)" />
<clipPath id="clip76"><path d="M1032,435 L1120,435 L1120,469 L1032,469 L1032,435 Z" /></clipPath>
<path d="M1035,466 L1116,466 Z M1035,466" style="fill:none;stroke:rgb(85,142,213);stroke-width:3" clip-path="url(#clip76)" />
<text x="1046" y="453" style="font:10px Open Sans">Probstats</text>
<clipPath id="clip77"><path d="M1032,468 L1146,468 L1146,502 L1032,502 L1032,468 Z" /></clipPath>
<path d="M1035,499 L1142,499 Z M1035,499" style="fill:none;stroke:rgb(85,142,213);stroke-width:3" clip-path="url(#clip77)" />
<text x="1046" y="486" style="font:10px Open Sans">Linear algebra</text>
<clipPath id="clip78"><path d="M1032,501 L1202,501 L1202,535 L1032,535 L1032,501 Z" /></clipPath>
<path d="M1035,532 L1198,532 Z M1035,532" style="fill:none;stroke:rgb(85,142,213);stroke-width:3" clip-path="url(#clip78)" />
<text x="1046" y="519" style="font:10px Open Sans">Reinforcement learning</text>
<clipPath id="clip79"><path d="M15,362 L622,362 L622,559 L15,559 Z M446,469 C443.2382813,469 441,471.2382813 441,474 L441,507 C441,509.7617188 443.2382813,512 446,512 L615,512 C617.7617188,512 620,509.7617188 620,507 L620,474 C620,471.2382813 617.7617188,469 615,469 Z M446,469 Z M446,469" /></clipPath>
<path d="M428,491.015625 C425.7773438,447.0039063 422.4453125,425 418,425" style="fill:none;stroke:rgb(85,142,213)" clip-path="url(#clip79)" />
<clipPath id="clip80"><path d="M15,362 L622,362 L622,559 L15,559 Z M446,469 C443.2382813,469 441,471.2382813 441,474 L441,507 C441,509.7617188 443.2382813,512 446,512 L615,512 C617.7617188,512 620,509.7617188 620,507 L620,474 C620,471.2382813 617.7617188,469 615,469 Z M446,469 Z M446,469" /></clipPath>
<path d="M428,491.015625 C425.7773438,501.671875 422.4453125,507 418,507" style="fill:none;stroke:rgb(85,142,213)" clip-path="url(#clip80)" />
<clipPath id="clip81"><path d="M15,362 L622,362 L622,559 L15,559 Z M446,469 C443.2382813,469 441,471.2382813 441,474 L441,507 C441,509.7617188 443.2382813,512 446,512 L615,512 C617.7617188,512 620,509.7617188 620,507 L620,474 C620,471.2382813 617.7617188,469 615,469 Z M446,469 Z M446,469" /></clipPath>
<path d="M428,491.015625 C425.7773438,535.0039063 422.4453125,557 418,557" style="fill:none;stroke:rgb(85,142,213)" clip-path="url(#clip81)" />
<clipPath id="clip82"><path d="M14,361 L623,361 L623,560 L14,560 L14,361 Z" /></clipPath>
<path d="M441,490.9492188 L428,491.015625" style="fill:none;stroke:rgb(85,142,213)" clip-path="url(#clip82)" />
<clipPath id="clip83"><path d="M439,467 L623,467 L623,515 L439,515 L439,467 Z" /></clipPath>
<path d="M446,469 C443.2382813,469 441,471.2382813 441,474 L441,507 C441,509.7617188 443.2382813,512 446,512 L615,512 C617.7617188,512 620,509.7617188 620,507 L620,474 C620,471.2382813 617.7617188,469 615,469 Z M446,469" style="fill:rgb(220,230,242);stroke:none" clip-path="url(#clip83)" />
<clipPath id="clip84"><path d="M439,467 L623,467 L623,515 L439,515 L439,467 Z" /></clipPath>
<path d="M446,469 C443.2382813,469 441,471.2382813 441,474 L441,507 C441,509.7617188 443.2382813,512 446,512 L615,512 C617.7617188,512 620,509.7617188 620,507 L620,474 C620,471.2382813 617.7617188,469 615,469 Z M446,469" style="fill:none;stroke:rgb(85,142,213);stroke-width:2" clip-path="url(#clip84)" />
<text x="456" y="492" style="font:13px Open Sans">Web development</text>
<clipPath id="clip85"><path d="M428,485 L441,485 L441,498 L428,498 L428,485 Z" /></clipPath>
<path d="M438.5,491 C438.5,488.515625 436.484375,486.5 434,486.5 C431.515625,486.5 429.5,488.515625 429.5,491 C429.5,493.484375 431.515625,495.5 434,495.5 C436.484375,495.5 438.5,493.484375 438.5,491 Z M438.5,491" style="fill:rgb(250,250,250);stroke:none" clip-path="url(#clip85)" />
<clipPath id="clip86"><path d="M428,485 L441,485 L441,498 L428,498 L428,485 Z" /></clipPath>
<path d="M438.5,491 C438.5,488.515625 436.484375,486.5 434,486.5 C431.515625,486.5 429.5,488.515625 429.5,491 C429.5,493.484375 431.515625,495.5 434,495.5 C436.484375,495.5 438.5,493.484375 438.5,491 Z M438.5,491" style="fill:none;stroke:rgb(85,142,213)" clip-path="url(#clip86)" />
<clipPath id="clip87"><path d="M428,485 L441,485 L441,498 L428,498 L428,485 Z" /></clipPath>
<path d="M432,491 L436,491" style="fill:none;stroke:rgb(150,160,200)" clip-path="url(#clip87)" />
<clipPath id="clip88"><path d="M226,362 L421,362 L421,460 L226,460 Z M336,397 L336,424 L418,424 L418,397 Z M336,397 Z M336,397" /></clipPath>
<path d="M323,425 C320.5546875,403 316.890625,392 312,392" style="fill:none;stroke:rgb(85,142,213)" clip-path="url(#clip88)" />
<clipPath id="clip89"><path d="M226,362 L421,362 L421,460 L226,460 Z M336,397 L336,424 L418,424 L418,397 Z M336,397 Z M336,397" /></clipPath>
<path d="M323,425 C320.5546875,425 316.890625,425 312,425" style="fill:none;stroke:rgb(85,142,213)" clip-path="url(#clip89)" />
<clipPath id="clip90"><path d="M226,362 L421,362 L421,460 L226,460 Z M336,397 L336,424 L418,424 L418,397 Z M336,397 Z M336,397" /></clipPath>
<path d="M323,425 C320.5546875,447 316.890625,458 312,458" style="fill:none;stroke:rgb(85,142,213)" clip-path="url(#clip90)" />
<clipPath id="clip91"><path d="M225,361 L422,361 L422,461 L225,461 L225,361 Z" /></clipPath>
<path d="M336,425 L323,425" style="fill:none;stroke:rgb(85,142,213)" clip-path="url(#clip91)" />
<clipPath id="clip92"><path d="M333,394 L422,394 L422,428 L333,428 L333,394 Z" /></clipPath>
<path d="M336,425 L418,425 Z M336,425" style="fill:none;stroke:rgb(85,142,213);stroke-width:3" clip-path="url(#clip92)" />
<text x="348" y="412" style="font:10px Open Sans">Front end</text>
<clipPath id="clip93"><path d="M322,405 L335,405 L335,418 L322,418 L322,405 Z" /></clipPath>
<path d="M332.5,411 C332.5,408.515625 330.484375,406.5 328,406.5 C325.515625,406.5 323.5,408.515625 323.5,411 C323.5,413.484375 325.515625,415.5 328,415.5 C330.484375,415.5 332.5,413.484375 332.5,411 Z M332.5,411" style="fill:rgb(250,250,250);stroke:none" clip-path="url(#clip93)" />
<clipPath id="clip94"><path d="M322,405 L335,405 L335,418 L322,418 L322,405 Z" /></clipPath>
<path d="M332.5,411 C332.5,408.515625 330.484375,406.5 328,406.5 C325.515625,406.5 323.5,408.515625 323.5,411 C323.5,413.484375 325.515625,415.5 328,415.5 C330.484375,415.5 332.5,413.484375 332.5,411 Z M332.5,411" style="fill:none;stroke:rgb(85,142,213)" clip-path="url(#clip94)" />
<clipPath id="clip95"><path d="M322,405 L335,405 L335,418 L322,418 L322,405 Z" /></clipPath>
<path d="M326,411 L330,411" style="fill:none;stroke:rgb(150,160,200)" clip-path="url(#clip95)" />
<clipPath id="clip96"><path d="M253,361 L316,361 L316,395 L253,395 L253,361 Z" /></clipPath>
<path d="M256,392 L312,392 Z M256,392" style="fill:none;stroke:rgb(85,142,213);stroke-width:3" clip-path="url(#clip96)" />
<text x="268" y="379" style="font:10px Open Sans">React</text>
<clipPath id="clip97"><path d="M248,394 L316,394 L316,428 L248,428 L248,394 Z" /></clipPath>
<path d="M251,425 L312,425 Z M251,425" style="fill:none;stroke:rgb(85,142,213);stroke-width:3" clip-path="url(#clip97)" />
<text x="263" y="412" style="font:10px Open Sans">Redux</text>
<clipPath id="clip98"><path d="M225,427 L316,427 L316,461 L225,461 L225,427 Z" /></clipPath>
<path d="M228,458 L312,458 Z M228,458" style="fill:none;stroke:rgb(85,142,213);stroke-width:3" clip-path="url(#clip98)" />
<text x="240" y="445" style="font:10px Open Sans">Webpack?</text>
<clipPath id="clip99"><path d="M15,461 L421,461 L421,526 L15,526 Z M343,479 L343,506 L418,506 L418,479 Z M343,479 Z M343,479" /></clipPath>
<path d="M330,507 C327.5546875,496.3320313 323.890625,491 319,491" style="fill:none;stroke:rgb(85,142,213)" clip-path="url(#clip99)" />
<clipPath id="clip100"><path d="M15,461 L421,461 L421,526 L15,526 Z M343,479 L343,506 L418,506 L418,479 Z M343,479 Z M343,479" /></clipPath>
<path d="M330,507 C327.5546875,518.3320313 323.890625,524 319,524" style="fill:none;stroke:rgb(85,142,213)" clip-path="url(#clip100)" />
<clipPath id="clip101"><path d="M14,460 L422,460 L422,527 L14,527 L14,460 Z" /></clipPath>
<path d="M343,507 L330,507" style="fill:none;stroke:rgb(85,142,213)" clip-path="url(#clip101)" />
<clipPath id="clip102"><path d="M340,476 L422,476 L422,510 L340,510 L340,476 Z" /></clipPath>
<path d="M343,507 L418,507 Z M343,507" style="fill:none;stroke:rgb(85,142,213);stroke-width:3" clip-path="url(#clip102)" />
<text x="355" y="494" style="font:10px Open Sans">Backend</text>
<clipPath id="clip103"><path d="M329,487 L342,487 L342,500 L329,500 L329,487 Z" /></clipPath>
<path d="M339.5,493 C339.5,490.515625 337.484375,488.5 335,488.5 C332.515625,488.5 330.5,490.515625 330.5,493 C330.5,495.484375 332.515625,497.5 335,497.5 C337.484375,497.5 339.5,495.484375 339.5,493 Z M339.5,493" style="fill:rgb(250,250,250);stroke:none" clip-path="url(#clip103)" />
<clipPath id="clip104"><path d="M329,487 L342,487 L342,500 L329,500 L329,487 Z" /></clipPath>
<path d="M339.5,493 C339.5,490.515625 337.484375,488.5 335,488.5 C332.515625,488.5 330.5,490.515625 330.5,493 C330.5,495.484375 332.515625,497.5 335,497.5 C337.484375,497.5 339.5,495.484375 339.5,493 Z M339.5,493" style="fill:none;stroke:rgb(85,142,213)" clip-path="url(#clip104)" />
<clipPath id="clip105"><path d="M329,487 L342,487 L342,500 L329,500 L329,487 Z" /></clipPath>
<path d="M333,493 L337,493" style="fill:none;stroke:rgb(150,160,200)" clip-path="url(#clip105)" />
<clipPath id="clip106"><path d="M250,460 L323,460 L323,494 L250,494 L250,460 Z" /></clipPath>
<path d="M253,491 L319,491 Z M253,491" style="fill:none;stroke:rgb(85,142,213);stroke-width:3" clip-path="url(#clip106)" />
<text x="265" y="478" style="font:10px Open Sans">Django</text>
<clipPath id="clip107"><path d="M15,494 L322,494 L322,526 L15,526 Z M153,496 L153,523 L319,523 L319,496 Z M153,496 Z M153,496" /></clipPath>
<path d="M140,524 C137.5546875,524 133.890625,524 129,524" style="fill:none;stroke:rgb(85,142,213)" clip-path="url(#clip107)" />
<clipPath id="clip108"><path d="M14,493 L323,493 L323,527 L14,527 L14,493 Z" /></clipPath>
<path d="M153,524 L140,524" style="fill:none;stroke:rgb(85,142,213)" clip-path="url(#clip108)" />
<clipPath id="clip109"><path d="M150,493 L323,493 L323,527 L150,527 L150,493 Z" /></clipPath>
<path d="M153,524 L319,524 Z M153,524" style="fill:none;stroke:rgb(85,142,213);stroke-width:3" clip-path="url(#clip109)" />
<text x="165" y="511" style="font:10px Open Sans">Django Rest Framework</text>
<clipPath id="clip110"><path d="M139,504 L152,504 L152,517 L139,517 L139,504 Z" /></clipPath>
<path d="M149.5,510 C149.5,507.515625 147.484375,505.5 145,505.5 C142.515625,505.5 140.5,507.515625 140.5,510 C140.5,512.484375 142.515625,514.5 145,514.5 C147.484375,514.5 149.5,512.484375 149.5,510 Z M149.5,510" style="fill:rgb(250,250,250);stroke:none" clip-path="url(#clip110)" />
<clipPath id="clip111"><path d="M139,504 L152,504 L152,517 L139,517 L139,504 Z" /></clipPath>
<path d="M149.5,510 C149.5,507.515625 147.484375,505.5 145,505.5 C142.515625,505.5 140.5,507.515625 140.5,510 C140.5,512.484375 142.515625,514.5 145,514.5 C147.484375,514.5 149.5,512.484375 149.5,510 Z M149.5,510" style="fill:none;stroke:rgb(85,142,213)" clip-path="url(#clip111)" />
<clipPath id="clip112"><path d="M139,504 L152,504 L152,517 L139,517 L139,504 Z" /></clipPath>
<path d="M143,510 L147,510" style="fill:none;stroke:rgb(150,160,200)" clip-path="url(#clip112)" />
<clipPath id="clip113"><path d="M14,493 L133,493 L133,527 L14,527 L14,493 Z" /></clipPath>
<path d="M17,524 L129,524 Z M17,524" style="fill:none;stroke:rgb(85,142,213);stroke-width:3" clip-path="url(#clip113)" />
<text x="29" y="511" style="font:10px Open Sans">Authentication</text>
<clipPath id="clip114"><path d="M329,526 L422,526 L422,560 L329,560 L329,526 Z" /></clipPath>
<path d="M332,557 L418,557 Z M332,557" style="fill:none;stroke:rgb(85,142,213);stroke-width:3" clip-path="url(#clip114)" />
<text x="344" y="544" style="font:10px Open Sans">Databases</text>
<clipPath id="clip115"><path d="M219,233 L580,233 L580,331 L219,331 Z M386,274 C383.2382813,274 381,276.2382813 381,279 L381,312 C381,314.7617188 383.2382813,317 386,317 L573,317 C575.7617188,317 578,314.7617188 578,312 L578,279 C578,276.2382813 575.7617188,274 573,274 Z M386,274 Z M386,274" /></clipPath>
<path d="M368,296.0585938 C365.7773438,274.0195313 362.4453125,263 358,263" style="fill:none;stroke:rgb(85,142,213)" clip-path="url(#clip115)" />
<clipPath id="clip116"><path d="M219,233 L580,233 L580,331 L219,331 Z M386,274 C383.2382813,274 381,276.2382813 381,279 L381,312 C381,314.7617188 383.2382813,317 386,317 L573,317 C575.7617188,317 578,314.7617188 578,312 L578,279 C578,276.2382813 575.7617188,274 573,274 Z M386,274 Z M386,274" /></clipPath>
<path d="M368,296.0585938 C365.7773438,296.0195313 362.4453125,296 358,296" style="fill:none;stroke:rgb(85,142,213)" clip-path="url(#clip116)" />
<clipPath id="clip117"><path d="M219,233 L580,233 L580,331 L219,331 Z M386,274 C383.2382813,274 381,276.2382813 381,279 L381,312 C381,314.7617188 383.2382813,317 386,317 L573,317 C575.7617188,317 578,314.7617188 578,312 L578,279 C578,276.2382813 575.7617188,274 573,274 Z M386,274 Z M386,274" /></clipPath>
<path d="M368,296.0585938 C365.7773438,318.0195313 362.4453125,329 358,329" style="fill:none;stroke:rgb(85,142,213)" clip-path="url(#clip117)" />
<clipPath id="clip118"><path d="M218,232 L581,232 L581,332 L218,332 L218,232 Z" /></clipPath>
<path d="M381,295.9960938 L368,296.0585938" style="fill:none;stroke:rgb(85,142,213)" clip-path="url(#clip118)" />
<clipPath id="clip119"><path d="M379,272 L581,272 L581,320 L379,320 L379,272 Z" /></clipPath>
<path d="M386,274 C383.2382813,274 381,276.2382813 381,279 L381,312 C381,314.7617188 383.2382813,317 386,317 L573,317 C575.7617188,317 578,314.7617188 578,312 L578,279 C578,276.2382813 575.7617188,274 573,274 Z M386,274" style="fill:rgb(220,230,242);stroke:none" clip-path="url(#clip119)" />
<clipPath id="clip120"><path d="M379,272 L581,272 L581,320 L379,320 L379,272 Z" /></clipPath>
<path d="M386,274 C383.2382813,274 381,276.2382813 381,279 L381,312 C381,314.7617188 383.2382813,317 386,317 L573,317 C575.7617188,317 578,314.7617188 578,312 L578,279 C578,276.2382813 575.7617188,274 573,274 Z M386,274" style="fill:none;stroke:rgb(85,142,213);stroke-width:2" clip-path="url(#clip120)" />
<text x="396" y="298" style="font:13px Open Sans">Mobile development</text>
<clipPath id="clip121"><path d="M368,290 L381,290 L381,303 L368,303 L368,290 Z" /></clipPath>
<path d="M378.5,296 C378.5,293.515625 376.484375,291.5 374,291.5 C371.515625,291.5 369.5,293.515625 369.5,296 C369.5,298.484375 371.515625,300.5 374,300.5 C376.484375,300.5 378.5,298.484375 378.5,296 Z M378.5,296" style="fill:rgb(250,250,250);stroke:none" clip-path="url(#clip121)" />
<clipPath id="clip122"><path d="M368,290 L381,290 L381,303 L368,303 L368,290 Z" /></clipPath>
<path d="M378.5,296 C378.5,293.515625 376.484375,291.5 374,291.5 C371.515625,291.5 369.5,293.515625 369.5,296 C369.5,298.484375 371.515625,300.5 374,300.5 C376.484375,300.5 378.5,298.484375 378.5,296 Z M378.5,296" style="fill:none;stroke:rgb(85,142,213)" clip-path="url(#clip122)" />
<clipPath id="clip123"><path d="M368,290 L381,290 L381,303 L368,303 L368,290 Z" /></clipPath>
<path d="M372,296 L376,296" style="fill:none;stroke:rgb(150,160,200)" clip-path="url(#clip123)" />
<clipPath id="clip124"><path d="M218,232 L362,232 L362,266 L218,266 L218,232 Z" /></clipPath>
<path d="M221,263 L358,263 Z M221,263" style="fill:none;stroke:rgb(85,142,213);stroke-width:3" clip-path="url(#clip124)" />
<text x="233" y="251" style="font:10px Open Sans">Basic Android apps</text>
<clipPath id="clip125"><path d="M224,265 L362,265 L362,299 L224,299 L224,265 Z" /></clipPath>
<path d="M227,296 L358,296 Z M227,296" style="fill:none;stroke:rgb(85,142,213);stroke-width:3" clip-path="url(#clip125)" />
<text x="239" y="284" style="font:10px Open Sans">Android hardware</text>
<clipPath id="clip126"><path d="M270,298 L362,298 L362,332 L270,332 L270,298 Z" /></clipPath>
<path d="M273,329 L358,329 Z M273,329" style="fill:none;stroke:rgb(85,142,213);stroke-width:3" clip-path="url(#clip126)" />
<text x="285" y="316" style="font:10px Open Sans">Wearables</text>
<clipPath id="clip127"><path d="M213,73 L622,73 L622,204 L213,204 Z M435,130 C432.2382813,130 430,132.2382813 430,135 L430,168 C430,170.7617188 432.2382813,173 435,173 L615,173 C617.7617188,173 620,170.7617188 620,168 L620,135 C620,132.2382813 617.7617188,130 615,130 Z M435,130 Z M435,130" /></clipPath>
<path d="M417,152.0390625 C414.7773438,119.3476563 411.4453125,103 407,103" style="fill:none;stroke:rgb(85,142,213)" clip-path="url(#clip127)" />
<clipPath id="clip128"><path d="M213,73 L622,73 L622,204 L213,204 Z M435,130 C432.2382813,130 430,132.2382813 430,135 L430,168 C430,170.7617188 432.2382813,173 435,173 L615,173 C617.7617188,173 620,170.7617188 620,168 L620,135 C620,132.2382813 617.7617188,130 615,130 Z M435,130 Z M435,130" /></clipPath>
<path d="M417,152.0390625 C414.7773438,141.3476563 411.4453125,136 407,136" style="fill:none;stroke:rgb(85,142,213)" clip-path="url(#clip128)" />
<clipPath id="clip129"><path d="M213,73 L622,73 L622,204 L213,204 Z M435,130 C432.2382813,130 430,132.2382813 430,135 L430,168 C430,170.7617188 432.2382813,173 435,173 L615,173 C617.7617188,173 620,170.7617188 620,168 L620,135 C620,132.2382813 617.7617188,130 615,130 Z M435,130 Z M435,130" /></clipPath>
<path d="M417,152.0390625 C414.7773438,163.3476563 411.4453125,169 407,169" style="fill:none;stroke:rgb(85,142,213)" clip-path="url(#clip129)" />
<clipPath id="clip130"><path d="M213,73 L622,73 L622,204 L213,204 Z M435,130 C432.2382813,130 430,132.2382813 430,135 L430,168 C430,170.7617188 432.2382813,173 435,173 L615,173 C617.7617188,173 620,170.7617188 620,168 L620,135 C620,132.2382813 617.7617188,130 615,130 Z M435,130 Z M435,130" /></clipPath>
<path d="M417,152.0390625 C414.7773438,185.3476563 411.4453125,202 407,202" style="fill:none;stroke:rgb(85,142,213)" clip-path="url(#clip130)" />
<clipPath id="clip131"><path d="M212,72 L623,72 L623,205 L212,205 L212,72 Z" /></clipPath>
<path d="M430,151.9765625 L417,152.0390625" style="fill:none;stroke:rgb(85,142,213)" clip-path="url(#clip131)" />
<clipPath id="clip132"><path d="M428,128 L623,128 L623,176 L428,176 L428,128 Z" /></clipPath>
<path d="M435,130 C432.2382813,130 430,132.2382813 430,135 L430,168 C430,170.7617188 432.2382813,173 435,173 L615,173 C617.7617188,173 620,170.7617188 620,168 L620,135 C620,132.2382813 617.7617188,130 615,130 Z M435,130" style="fill:rgb(220,230,242);stroke:none" clip-path="url(#clip132)" />
<clipPath id="clip133"><path d="M428,128 L623,128 L623,176 L428,176 L428,128 Z" /></clipPath>
<path d="M435,130 C432.2382813,130 430,132.2382813 430,135 L430,168 C430,170.7617188 432.2382813,173 435,173 L615,173 C617.7617188,173 620,170.7617188 620,168 L620,135 C620,132.2382813 617.7617188,130 615,130 Z M435,130" style="fill:none;stroke:rgb(85,142,213);stroke-width:2" clip-path="url(#clip133)" />
<text x="445" y="154" style="font:13px Open Sans">Artificial intelligence</text>
<clipPath id="clip134"><path d="M417,146 L430,146 L430,159 L417,159 L417,146 Z" /></clipPath>
<path d="M427.5,152 C427.5,149.515625 425.484375,147.5 423,147.5 C420.515625,147.5 418.5,149.515625 418.5,152 C418.5,154.484375 420.515625,156.5 423,156.5 C425.484375,156.5 427.5,154.484375 427.5,152 Z M427.5,152" style="fill:rgb(250,250,250);stroke:none" clip-path="url(#clip134)" />
<clipPath id="clip135"><path d="M417,146 L430,146 L430,159 L417,159 L417,146 Z" /></clipPath>
<path d="M427.5,152 C427.5,149.515625 425.484375,147.5 423,147.5 C420.515625,147.5 418.5,149.515625 418.5,152 C418.5,154.484375 420.515625,156.5 423,156.5 C425.484375,156.5 427.5,154.484375 427.5,152 Z M427.5,152" style="fill:none;stroke:rgb(85,142,213)" clip-path="url(#clip135)" />
<clipPath id="clip136"><path d="M417,146 L430,146 L430,159 L417,159 L417,146 Z" /></clipPath>
<path d="M421,152 L425,152" style="fill:none;stroke:rgb(150,160,200)" clip-path="url(#clip136)" />
<clipPath id="clip137"><path d="M241,72 L411,72 L411,106 L241,106 L241,72 Z" /></clipPath>
<path d="M244,103 L407,103 Z M244,103" style="fill:none;stroke:rgb(85,142,213);stroke-width:3" clip-path="url(#clip137)" />
<text x="256" y="91" style="font:10px Open Sans">Constraint propagation</text>
<clipPath id="clip138"><path d="M212,105 L411,105 L411,139 L212,139 L212,105 Z" /></clipPath>
<path d="M215,136 L407,136 Z M215,136" style="fill:none;stroke:rgb(85,142,213);stroke-width:3" clip-path="url(#clip138)" />
<text x="227" y="124" style="font:10px Open Sans">Natural language processing</text>
<clipPath id="clip139"><path d="M282,138 L411,138 L411,172 L282,172 L282,138 Z" /></clipPath>
<path d="M285,169 L407,169 Z M285,169" style="fill:none;stroke:rgb(85,142,213);stroke-width:3" clip-path="url(#clip139)" />
<text x="297" y="157" style="font:10px Open Sans">Neural networks</text>
<clipPath id="clip140"><path d="M268,171 L411,171 L411,205 L268,205 L268,171 Z" /></clipPath>
<path d="M271,202 L407,202 Z M271,202" style="fill:none;stroke:rgb(85,142,213);stroke-width:3" clip-path="url(#clip140)" />
<text x="283" y="190" style="font:10px Open Sans">Natural computing</text>
<clipPath id="clip141"><path d="M360,193 L955,193 L955,320 L360,320 L360,193 Z" /></clipPath>
<path d="M364.375,201 C573,312 727,197 951.4492188,316" style="fill:none;stroke:rgb(119,147,60);stroke-width:3;stroke-dasharray:18,9;stroke-dashoffset:0" clip-path="url(#clip141)" />
<clipPath id="clip142"><path d="M360,193 L955,193 L955,320 L360,320 L360,193 Z" /></clipPath>
<path d="M941.453125,316.359375 L951.4492188,316 L946.140625,307.5273438 Z M941.453125,316.359375" style="fill:rgb(119,147,60);stroke:none" clip-path="url(#clip142)" />
<clipPath id="clip143"><path d="M360,193 L955,193 L955,320 L360,320 L360,193 Z" /></clipPath>
<path d="M941.453125,316.359375 L951.4492188,316 L946.140625,307.5273438 Z M941.453125,316.359375" style="fill:none;stroke:rgb(119,147,60);stroke-width:3" clip-path="url(#clip143)" />
<clipPath id="clip144"><path d="M355,164 L909,164 L909,481 L355,481 L355,164 Z" /></clipPath>
<path d="M359.1835938,168 C533,346 728,295 905.5273438,477" style="fill:none;stroke:rgb(119,147,60);stroke-width:3;stroke-dasharray:18,9;stroke-dashoffset:0" clip-path="url(#clip144)" />
<clipPath id="clip145"><path d="M355,164 L909,164 L909,481 L355,481 L355,164 Z" /></clipPath>
<path d="M895.9023438,474.2929688 L905.5273438,477 L903.0585938,467.3085938 Z M895.9023438,474.2929688" style="fill:rgb(119,147,60);stroke:none" clip-path="url(#clip145)" />
<clipPath id="clip146"><path d="M355,164 L909,164 L909,481 L355,481 L355,164 Z" /></clipPath>
<path d="M895.9023438,474.2929688 L905.5273438,477 L903.0585938,467.3085938 Z M895.9023438,474.2929688" style="fill:none;stroke:rgb(119,147,60);stroke-width:3" clip-path="url(#clip146)" />
</svg>
